<svg width="1280" height="420" viewBox="0 0 1280 420" fill="none" xmlns="http://www.w3.org/2000/svg" role="img" aria-labelledby="title desc">
  <title id="title">Certwarden banner</title>
  <desc id="desc">Certwarden product banner with a shield mark and a concise certificate monitoring tagline.</desc>
  <defs>
    <linearGradient id="bg" x1="72" y1="58" x2="1206" y2="372" gradientUnits="userSpaceOnUse">
      <stop stop-color="#071421"/>
      <stop offset="0.52" stop-color="#0F2740"/>
      <stop offset="1" stop-color="#0A4B53"/>
    </linearGradient>
    <linearGradient id="frame" x1="160" y1="52" x2="1122" y2="388" gradientUnits="userSpaceOnUse">
      <stop stop-color="#67E8F9" stop-opacity="0.36"/>
      <stop offset="1" stop-color="#5EEAD4" stop-opacity="0.12"/>
    </linearGradient>
    <linearGradient id="shieldStroke" x1="0" y1="88" x2="0" y2="220" gradientUnits="userSpaceOnUse">
      <stop stop-color="#E6FFFB"/>
      <stop offset="1" stop-color="#93F5E6"/>
    </linearGradient>
    <linearGradient id="shieldGlow" x1="146" y1="120" x2="336" y2="288" gradientUnits="userSpaceOnUse">
      <stop stop-color="#22D3EE" stop-opacity="0.9"/>
      <stop offset="1" stop-color="#2DD4BF" stop-opacity="0.18"/>
    </linearGradient>
    <filter id="softShadow" x="86" y="62" width="326" height="326" filterUnits="userSpaceOnUse" color-interpolation-filters="sRGB">
      <feFlood flood-opacity="0" result="BackgroundImageFix"/>
      <feColorMatrix in="SourceAlpha" type="matrix" values="0 0 0 0 0 0 0 0 0 0 0 0 0 0 0 0 0 0 127 0" result="hardAlpha"/>
      <feOffset dy="18"/>
      <feGaussianBlur stdDeviation="22"/>
      <feColorMatrix type="matrix" values="0 0 0 0 0.0117647 0 0 0 0 0.101961 0 0 0 0 0.180392 0 0 0 0.42 0"/>
      <feBlend mode="normal" in2="BackgroundImageFix" result="effect1_dropShadow_0_1"/>
      <feBlend mode="normal" in="SourceGraphic" in2="effect1_dropShadow_0_1" result="shape"/>
    </filter>
  </defs>

  <rect width="1280" height="420" rx="28" fill="url(#bg)"/>
  <rect x="18" y="18" width="1244" height="384" rx="18" stroke="url(#frame)"/>

  <path d="M0 110H1280" stroke="#D9F8FF" stroke-opacity="0.05"/>
  <path d="M0 210H1280" stroke="#D9F8FF" stroke-opacity="0.04"/>
  <path d="M0 310H1280" stroke="#D9F8FF" stroke-opacity="0.05"/>
  <path d="M190 0V420" stroke="#D9F8FF" stroke-opacity="0.04"/>
  <path d="M1058 0V420" stroke="#D9F8FF" stroke-opacity="0.04"/>

  <circle cx="1118" cy="84" r="88" fill="#67E8F9" fill-opacity="0.05"/>
  <circle cx="1150" cy="352" r="126" fill="#2DD4BF" fill-opacity="0.06"/>

  <g filter="url(#softShadow)">
    <rect x="130" y="108" width="238" height="238" fill="#07131E"/>
    <rect x="130.5" y="108.5" width="237" height="237" stroke="#67E8F9" stroke-opacity="0.18"/>
    <rect x="154" y="132" width="190" height="190" fill="url(#shieldGlow)"/>
    <path d="M249 154L302 176V222C302 269.128 280.058 309.331 249 333C217.942 309.331 196 269.128 196 222V176L249 154Z" fill="#071421" stroke="url(#shieldStroke)" stroke-width="12"/>
    <path d="M226 225L243.5 242.5L276.5 207.5" stroke="url(#shieldStroke)" stroke-width="16" stroke-linecap="square" stroke-linejoin="miter"/>
  </g>

  <text x="454" y="165" fill="#F8FAFC" font-size="82" font-family="Segoe UI, Arial, sans-serif" font-weight="700" letter-spacing="-1.5">Certwarden</text>
  <text x="454" y="218" fill="#BFEFF3" font-size="28" font-family="Segoe UI, Arial, sans-serif" font-weight="500">Multi-tenant certificate monitoring</text>
  <text x="454" y="270" fill="#DCE8F2" font-size="24" font-family="Segoe UI, Arial, sans-serif">Public status pages · SSL/TLS alerts · Docker ready</text>

  <rect x="454" y="308" width="210" height="48" fill="#F1FDFF"/>
  <text x="482" y="339" fill="#0A5D66" font-size="20" font-family="Segoe UI, Arial, sans-serif" font-weight="700">Tenant visibility</text>

  <rect x="684" y="308" width="186" height="48" fill="#113542" stroke="#87F0E0" stroke-opacity="0.22"/>
  <text x="712" y="339" fill="#D6FFF8" font-size="20" font-family="Segoe UI, Arial, sans-serif" font-weight="600">Expiry alerts</text>

  <rect x="890" y="308" width="188" height="48" fill="#113542" stroke="#87F0E0" stroke-opacity="0.22"/>
  <text x="918" y="339" fill="#D6FFF8" font-size="20" font-family="Segoe UI, Arial, sans-serif" font-weight="600">Worker pool</text>
</svg>
